<?xml version="1.0" standalone="no"?>
<!DOCTYPE svg PUBLIC "-//W3C//DTD SVG 20010904//EN"
 "http://www.w3.org/TR/2001/REC-SVG-20010904/DTD/svg10.dtd">
<svg version="1.0" xmlns="http://www.w3.org/2000/svg"
 width="1563.000000pt" height="1563.000000pt" viewBox="0 0 1563.000000 1563.000000"
 preserveAspectRatio="xMidYMid meet">
<metadata>
Created by potrace 1.14, written by Peter Selinger 2001-2017
</metadata>
<g transform="translate(0.000000,1563.000000) scale(0.100000,-0.100000)"
fill="#000000" stroke="none">
<path d="M8057 10844 c-1 -1 -40 -4 -87 -8 -83 -6 -120 -10 -190 -22 -19 -4
-48 -8 -65 -11 -73 -11 -239 -58 -340 -96 -394 -147 -733 -396 -1055 -773
-230 -268 -424 -655 -486 -969 -8 -38 -24 -130 -29 -165 -3 -19 -8 -51 -11
-70 -17 -109 -10 -608 11 -726 5 -29 3 -31 -52 -55 -32 -13 -61 -25 -65 -27
-4 -2 -8 645 -8 1437 l0 1441 -73 0 -73 0 0 -840 c1 -462 -2 -840 -5 -840 -3
0 -13 17 -22 38 -51 116 -199 210 -359 229 -336 38 -758 -81 -1172 -331 -60
-36 -112 -66 -115 -66 -5 0 -174 175 -262 271 -22 24 -189 201 -384 408 -44
46 -91 96 -105 111 -14 15 -82 87 -151 161 -70 74 -141 150 -159 169 -17 19
-69 74 -113 121 -45 47 -113 119 -152 160 -38 41 -132 141 -208 221 -76 80
-146 155 -156 167 -16 18 -30 21 -92 21 l-74 0 0 -2397 0 -2398 73 -3 72 -3 0
1798 0 1798 68 -70 c37 -39 132 -140 212 -225 80 -85 154 -164 165 -176 32
-34 288 -305 310 -328 11 -12 85 -91 165 -176 80 -85 148 -156 153 -158 16 -8
5 -30 -49 -97 -77 -97 -89 -121 -73 -151 8 -17 21 -24 40 -24 23 0 37 11 70
58 23 31 54 71 69 88 l27 31 101 -106 c55 -58 115 -122 132 -141 18 -19 59
-62 92 -96 l59 -61 -41 -52 c-24 -31 -55 -57 -73 -63 -71 -25 -267 -132 -352
-193 -330 -236 -448 -516 -280 -663 57 -50 115 -75 215 -89 85 -13 284 -6 370
12 14 3 47 10 74 15 185 37 466 152 661 270 95 58 85 59 153 -12 33 -34 69
-73 79 -84 10 -12 82 -88 159 -170 78 -82 156 -165 174 -184 18 -19 92 -97
164 -174 72 -76 138 -147 146 -156 9 -10 81 -87 161 -171 81 -85 165 -175 188
-201 l42 -46 75 1 74 1 0 617 0 617 28 6 c15 3 45 8 67 12 22 3 82 16 133 30
52 13 99 24 105 24 7 0 20 -18 31 -40 74 -154 253 -392 429 -571 406 -412 808
-631 1307 -713 117 -19 183 -24 330 -26 105 -1 113 -2 95 -16 -11 -8 -72 -51
-135 -94 -288 -198 -396 -274 -568 -403 -234 -175 -334 -259 -449 -375 -112
-113 -148 -179 -134 -242 13 -58 37 -89 83 -110 118 -53 352 41 623 249 208
160 391 329 751 693 122 122 246 249 275 280 51 53 80 71 132 82 97 21 173 45
313 101 335 134 586 303 847 570 111 113 114 118 89 152 -11 15 -32 39 -46 52
l-26 24 -112 -114 c-142 -145 -178 -177 -306 -272 -145 -108 -308 -201 -457
-261 -38 -16 -83 -34 -100 -41 -79 -33 -82 -31 -30 26 104 112 181 185 210
199 17 8 35 19 40 24 6 4 120 79 255 166 135 87 297 192 360 233 63 41 168
109 233 151 64 42 121 76 125 76 4 0 7 -250 6 -555 l-1 -555 1066 3 c586 2
1075 6 1086 9 11 3 51 9 89 12 38 4 72 9 75 10 3 2 28 7 54 10 78 11 269 63
374 102 260 97 458 238 640 457 85 102 110 140 169 254 189 366 151 834 -98
1203 -136 201 -358 390 -606 514 l-89 45 86 88 c94 97 182 221 232 329 17 38
36 77 40 86 5 10 18 50 29 90 21 71 24 86 35 138 2 14 7 39 11 55 13 67 13
340 -1 415 -65 352 -299 648 -640 809 -139 66 -364 129 -520 147 -33 3 -69 9
-80 12 -11 3 -455 8 -986 9 l-966 4 -1 -1393 c0 -766 -1 -1400 -1 -1408 -1
-12 -19 -15 -99 -16 -74 -1 -118 -7 -187 -28 -115 -35 -294 -117 -432 -199
-334 -198 -834 -409 -1020 -432 -47 -6 -55 -4 -78 19 -15 16 -25 36 -25 55 0
68 130 263 284 426 97 103 111 146 49 161 -24 7 -35 -1 -105 -75 -72 -76 -84
-84 -151 -106 -141 -45 -394 -122 -432 -131 -30 -7 -505 -148 -539 -159 -55
-20 -56 -20 -56 18 0 89 -116 110 -340 61 -14 -3 -68 -8 -120 -11 -121 -7
-131 1 -94 75 48 97 228 237 370 289 77 27 134 31 134 8 0 -28 -27 -69 -74
-113 -51 -49 -55 -63 -25 -93 26 -26 52 -18 107 35 77 74 112 183 76 234 -76
109 -341 29 -557 -167 -41 -38 -179 -132 -184 -127 -9 9 -18 105 -30 311 -13
237 -6 770 12 915 2 19 7 62 10 95 30 321 122 625 261 865 104 180 312 411
473 529 137 99 364 204 486 224 17 3 41 8 55 11 64 14 106 18 255 21 88 2 192
-1 230 -5 39 -5 90 -12 115 -15 109 -13 110 -13 245 -50 33 -9 70 -18 83 -21
23 -5 119 -38 157 -54 234 -100 341 -160 510 -284 90 -66 170 -135 287 -248
l49 -48 44 51 c25 27 45 54 45 58 0 13 -181 182 -274 257 -205 165 -433 290
-686 379 -96 33 -218 67 -283 79 -143 26 -175 30 -302 42 -54 5 -363 12 -368
8z m3950 -212 c196 -54 357 -211 456 -443 37 -85 73 -209 82 -279 15 -118 19
-165 19 -255 0 -172 -16 -284 -60 -420 -114 -348 -329 -565 -594 -600 -63 -9
-889 -9 -897 -1 -9 9 -9 2016 0 2019 5 1 214 2 465 1 422 -2 463 -4 529 -22z
m-6857 -1346 c78 -12 172 -57 219 -107 108 -113 107 -286 -4 -599 -33 -93
-140 -295 -219 -414 -79 -118 -186 -257 -220 -285 -24 -20 -44 1 -38 40 5 37
-16 59 -57 59 -26 0 -41 14 -281 270 -69 73 -155 165 -192 204 -37 39 -68 73
-68 76 0 12 211 239 329 355 88 86 99 113 56 141 -22 15 -27 15 -47 1 -42 -28
-308 -301 -387 -397 l-21 -25 -87 91 c-158 163 -206 215 -202 218 23 21 222
133 324 181 224 108 430 171 616 191 35 3 65 7 66 8 6 5 165 -2 213 -8z m384
-994 l-1 -488 -52 -64 c-90 -113 -132 -202 -133 -285 -1 -41 -11 -59 -20 -36
-1 5 -60 69 -129 143 -171 180 -209 222 -209 230 0 5 15 25 33 45 213 241 401
572 476 838 28 100 30 105 33 105 2 0 3 -220 2 -488z m6609 184 c55 -3 102 -8
107 -11 4 -3 25 -7 46 -11 137 -21 300 -103 407 -204 98 -91 205 -258 250
-387 l14 -42 -26 5 c-20 4 -50 -9 -131 -60 -206 -129 -516 -270 -700 -317 -79
-21 -193 -29 -207 -16 -13 14 -6 78 22 192 64 265 64 324 -2 354 -117 53 -367
-61 -827 -376 -42 -29 -79 -53 -81 -53 -3 0 -5 17 -5 38 0 25 7 45 23 62 13
14 51 57 85 97 93 108 303 314 377 369 66 50 86 84 68 113 -22 34 -58 24 -134
-38 -77 -62 -227 -206 -341 -329 -37 -40 -71 -72 -75 -72 -6 0 -9 550 -4 672
1 16 22 18 264 20 366 4 754 1 870 -6z m-1978 -604 c0 -24 -491 -324 -710
-434 -71 -35 -151 -65 -199 -74 -22 -4 -26 -1 -26 21 0 40 24 77 87 136 115
106 314 225 506 303 160 64 342 90 342 48z m1710 -16 c-3 -11 -7 -32 -9 -46
-2 -14 -18 -81 -35 -150 -39 -164 -43 -195 -31 -241 36 -132 247 -122 615 28
171 70 528 270 558 314 14 19 15 19 20 -8 2 -15 11 -59 20 -98 115 -532 -116
-1182 -497 -1394 -97 -55 -291 -106 -416 -111 -51 -2 -1030 -3 -1075 -1 -20 1
-20 7 -18 588 1 324 2 611 3 638 1 57 -19 40 230 205 218 145 256 170 263 170
4 0 29 14 56 31 67 41 202 98 254 108 49 9 69 -2 62 -33z m-6041 -8 c10 -39 7
-46 -26 -57 -60 -18 -132 -18 -126 1 5 13 116 78 134 78 7 0 14 -10 18 -22z
m-1991 -51 c41 -43 296 -313 375 -397 34 -36 62 -67 62 -70 0 -3 -39 -29 -87
-57 -313 -181 -619 -275 -893 -276 -70 -1 -148 5 -177 12 -63 15 -130 61 -144
99 -57 148 130 384 444 561 32 18 60 32 62 30 2 -2 -26 -43 -61 -92 -113 -153
-214 -310 -214 -332 0 -26 27 -52 53 -52 12 0 42 36 84 101 37 56 80 120 97
142 17 23 38 52 46 64 8 12 55 75 103 141 85 113 91 119 145 137 76 26 69 26
105 -11z m2111 -339 c9 -21 16 -41 16 -46 0 -9 -179 -56 -252 -66 l-38 -6 0
171 0 170 23 -2 c32 -4 130 10 147 21 12 8 22 -10 51 -98 20 -59 44 -124 53
-144z m4230 12 c0 -127 -3 -232 -5 -234 -4 -3 -293 -193 -414 -271 -313 -202
-397 -254 -379 -234 11 13 49 58 85 99 35 41 67 77 70 80 3 3 32 37 64 75 32
39 82 97 110 130 29 33 100 121 160 195 59 74 115 144 124 155 9 11 54 69 100
128 45 59 83 107 84 107 1 0 2 -104 1 -230z m-1837 171 c-19 -27 -50 -79 -69
-117 -27 -56 -33 -80 -32 -130 2 -148 102 -197 309 -149 35 8 201 62 230 75
11 5 58 25 105 44 47 19 125 53 173 75 49 23 91 41 93 41 3 0 -2 -13 -11 -30
-33 -64 -6 -157 52 -177 88 -30 277 48 646 269 88 52 127 68 127 52 0 -11
-280 -360 -391 -489 -137 -158 -352 -401 -435 -492 -95 -104 -118 -123 -301
-244 -109 -72 -238 -158 -287 -192 -103 -69 -123 -73 -341 -71 -210 2 -340 25
-505 91 -119 48 -200 94 -310 176 -175 131 -291 252 -410 427 -35 52 -110 184
-110 194 0 2 29 20 64 40 119 67 245 173 343 290 46 55 18 44 383 153 102 30
277 82 390 115 113 33 230 68 260 78 30 10 57 19 58 19 2 1 -12 -21 -31 -48z
m-2813 -136 c0 -74 -4 -138 -7 -142 -13 -12 -60 22 -72 51 -16 38 -10 77 22
141 20 40 50 85 57 85 1 0 1 -61 0 -135z m1186 81 c0 -36 19 -64 60 -89 37
-23 170 -19 335 9 166 28 175 29 175 9 0 -29 -32 -64 -68 -76 -78 -25 -241
-93 -340 -141 -57 -28 -105 -48 -108 -46 -4 5 -50 177 -59 227 -14 73 -17 141
-6 141 6 0 11 -15 11 -34z m389 -312 c-61 -67 -256 -193 -277 -180 -5 3 -12
17 -14 31 -5 23 3 29 116 83 132 64 189 90 195 91 3 1 -6 -11 -20 -25z m-1576
-35 c7 -25 -11 -24 -34 3 -24 27 -24 26 5 21 13 -3 26 -14 29 -24z m3007
-1264 c0 -5 -31 -37 -277 -286 -582 -591 -926 -851 -1170 -885 -30 -4 -43 -1
-61 16 -13 13 -21 29 -18 37 3 8 6 20 6 26 0 11 10 24 74 97 22 25 100 97 147
135 13 11 47 38 74 60 28 22 52 42 55 45 6 6 230 173 310 231 99 72 172 124
370 260 377 260 373 257 421 262 24 2 50 4 57 5 6 1 12 0 12 -3z"/>
<path d="M8890 8263 c-21 -5 -110 -128 -110 -151 0 -25 30 -50 55 -46 19 3 34
18 95 98 35 46 37 59 10 86 -20 20 -23 21 -50 13z"/>
</g>
</svg>
